<svg width="23" height="27" viewBox="0 0 23 27" fill="none" xmlns="http://www.w3.org/2000/svg">
<path d="M18.3477 8.75126C18.3477 6.95734 17.6492 5.23691 16.4058 3.96842C15.1625 2.69993 13.4761 1.9873 11.7178 1.9873C9.95942 1.9873 8.27308 2.69993 7.02974 3.96842C5.78639 5.23691 5.08789 6.95734 5.08789 8.75126C5.08789 16.6425 1.77295 18.8972 1.77295 18.8972H21.6626C21.6626 18.8972 18.3477 16.6425 18.3477 8.75126Z" stroke="#D3D3D3" stroke-width="2" stroke-linecap="round" stroke-linejoin="round"/>
<path d="M14.5401 23.076C14.1974 23.674 13.7055 24.1703 13.1136 24.5154C12.5218 24.8604 11.8508 25.042 11.1678 25.042C10.4847 25.042 9.81373 24.8604 9.22188 24.5154C8.63003 24.1703 8.13812 23.674 7.79541 23.076" stroke="#D3D3D3" stroke-width="2" stroke-linecap="round" stroke-linejoin="round"/>
</svg>
