<svg width="18" height="18" viewBox="0 0 18 18" fill="none" xmlns="http://www.w3.org/2000/svg">
<path d="M6.6 2C4.39086 2 2.6 3.74112 2.6 5.88889C2.6 8.03666 4.39086 9.77778 6.6 9.77778C8.80914 9.77778 10.6 8.03666 10.6 5.88889C10.6 3.74112 8.80914 2 6.6 2ZM4.2 5.88889C4.2 4.60022 5.27452 3.55556 6.6 3.55556C7.92548 3.55556 9 4.60022 9 5.88889C9 7.17755 7.92548 8.22222 6.6 8.22222C5.27452 8.22222 4.2 7.17755 4.2 5.88889Z" fill="black"/>
<path d="M12.9267 6.05866C12.7017 5.9471 12.4526 5.88894 12.2 5.88894V4.33338C12.7053 4.33338 13.2034 4.44966 13.6535 4.67279C13.7031 4.69737 13.7519 4.72316 13.8 4.75014C14.1883 4.96811 14.5257 5.26331 14.7898 5.6171C15.0866 6.01467 15.2823 6.47492 15.361 6.96017C15.4396 7.44543 15.399 7.94189 15.2423 8.40893C15.0857 8.87597 14.8175 9.30031 14.4598 9.64721C14.102 9.99412 13.6649 10.2537 13.1841 10.4048C12.7562 10.5392 12.3047 10.5843 11.8588 10.5378C11.8037 10.5321 11.7486 10.5249 11.6936 10.5164C11.195 10.4387 10.7225 10.2474 10.3145 9.95814L10.3137 9.95755L11.2568 8.701C11.4609 8.84578 11.6974 8.94149 11.9468 8.98035C12.1963 9.01922 12.4516 9.00011 12.692 8.92457C12.9324 8.84904 13.151 8.71924 13.3299 8.5458C13.5087 8.37235 13.6428 8.16019 13.7211 7.92667C13.7994 7.69316 13.8198 7.44494 13.7805 7.20232C13.7411 6.9597 13.6433 6.72958 13.4949 6.5308C13.3465 6.33202 13.1518 6.17022 12.9267 6.05866Z" fill="black"/>
<path d="M15.3985 16C15.3985 15.5916 15.3158 15.1873 15.155 14.81C14.9943 14.4327 14.7587 14.0899 14.4617 13.8012C14.1647 13.5124 13.8121 13.2833 13.424 13.1271C13.0359 12.9708 12.62 12.8904 12.2 12.8904V11.3333C12.7457 11.3333 13.2867 11.4238 13.8 11.6002C13.8797 11.6276 13.9586 11.6571 14.0369 11.6886C14.6192 11.9231 15.1484 12.2668 15.5941 12.7002C16.0398 13.1335 16.3934 13.648 16.6346 14.2141C16.667 14.2902 16.6973 14.367 16.7255 14.4444C16.907 14.9435 17 15.4695 17 16H15.3985Z" fill="black"/>
<path d="M12.2 16H10.6C10.6 13.8522 8.80914 12.1111 6.6 12.1111C4.39086 12.1111 2.6 13.8522 2.6 16H1C1 12.9931 3.50721 10.5556 6.6 10.5556C9.69279 10.5556 12.2 12.9931 12.2 16Z" fill="black"/>
</svg>
