<svg width="18" height="18" viewBox="0 0 18 18" fill="none" xmlns="http://www.w3.org/2000/svg">
<path d="M7.76654 2.65523L7.76712 2.65477C8.44101 2.11353 9.55135 2.11369 10.242 2.66364C10.2422 2.66378 10.2424 2.66392 10.2426 2.66406L15.1509 6.59076C15.372 6.77188 15.5826 7.07356 15.7225 7.4396C15.8621 7.80504 15.9069 8.17103 15.8643 8.45424L14.9207 14.1013C14.7637 14.9982 13.8724 15.75 12.975 15.75H5.02497C4.11073 15.75 3.24374 15.0189 3.08692 14.1096C3.08683 14.1091 3.08675 14.1087 3.08667 14.1082L2.14222 8.4564L2.14193 8.45468C2.09371 8.17019 2.13493 7.80442 2.27387 7.44006C2.41279 7.07577 2.62575 6.77487 2.85273 6.59377L2.85404 6.59273L7.76654 2.65523ZM8.99997 14.8125C9.72169 14.8125 10.3125 14.2217 10.3125 13.5V11.25C10.3125 10.5283 9.72169 9.93751 8.99997 9.93751C8.27826 9.93751 7.68747 10.5283 7.68747 11.25V13.5C7.68747 14.2217 8.27826 14.8125 8.99997 14.8125Z" stroke="black" stroke-width="1.5"/>
</svg>
