<svg width="180" height="39" viewBox="0 0 180 39" fill="none" xmlns="http://www.w3.org/2000/svg">
<path d="M9.46863 2.70767C13.1546 0.520279 17.4629 -0.380468 21.7165 0.146961C25.9701 0.674391 29.9279 2.6001 32.968 5.6215C36.0081 8.6429 37.9583 12.5887 38.512 16.839C39.0657 21.0892 38.1916 25.403 36.027 29.1024C33.8624 32.8019 30.5301 35.6773 26.5536 37.2769C22.5771 38.8765 18.1818 39.1096 14.0584 37.9396C9.93506 36.7696 6.31727 34.2627 3.77355 30.813C1.22982 27.3633 -0.0956631 23.1661 0.00537325 18.8812L2.70296 18.9448C2.61602 22.6318 3.75655 26.2432 5.94531 29.2116C8.13408 32.18 11.247 34.337 14.795 35.3437C18.343 36.3505 22.1249 36.1499 25.5466 34.7735C28.9682 33.3971 31.8355 30.923 33.698 27.7397C35.5605 24.5565 36.3127 20.8447 35.8362 17.1876C35.3598 13.5304 33.6818 10.1352 31.0659 7.5354C28.45 4.93561 25.0445 3.27862 21.3845 2.82479C17.7244 2.37096 14.0173 3.14602 10.8457 5.02817L9.46863 2.70767Z" fill="#7367F0"/>
<path d="M26.0517 30.9206C23.5157 32.4071 20.5581 33.0101 17.6425 32.635C14.7269 32.2598 12.0182 30.9277 9.94113 28.8476C7.86402 26.7675 6.53592 24.0568 6.16504 21.1407C5.79415 18.2246 6.40145 15.2678 7.89172 12.734C9.38199 10.2001 11.671 8.23244 14.3998 7.1394C17.1287 6.04637 20.1431 5.88978 22.9705 6.6942C25.7979 7.49862 28.2785 9.21855 30.0232 11.5844C31.768 13.9502 32.6784 16.8281 32.6117 19.767L29.7385 19.7017C29.7908 17.3989 29.0775 15.1439 27.7104 13.2901C26.3432 11.4363 24.3995 10.0887 22.1841 9.45836C19.9686 8.82804 17.6066 8.95074 15.4684 9.8072C13.3302 10.6637 11.5366 12.2055 10.3689 14.1909C9.20116 16.1764 8.72531 18.4932 9.01592 20.7781C9.30654 23.0631 10.3472 25.187 11.9747 26.817C13.6023 28.4469 15.7247 29.4906 18.0092 29.7846C20.2938 30.0786 22.6113 29.6061 24.5984 28.4413L26.0517 30.9206Z" fill="#7367F0"/>
<path d="M50.9266 28.4143H47.1031L52.9289 11.5383H57.527L63.3446 28.4143H59.5211L55.2939 15.3948H55.162L50.9266 28.4143ZM50.6876 21.7809H59.7189V24.5661H50.6876V21.7809ZM69.3846 28.6203C68.4233 28.6203 67.5525 28.3731 66.7725 27.8787C65.9979 27.3788 65.3826 26.6454 64.9267 25.6785C64.4762 24.7062 64.251 23.5141 64.251 22.1023C64.251 20.652 64.4844 19.4462 64.9514 18.4848C65.4183 17.518 66.0391 16.7956 66.8137 16.3177C67.5937 15.8342 68.448 15.5925 69.3764 15.5925C70.085 15.5925 70.6756 15.7134 71.148 15.9551C71.626 16.1913 72.0105 16.488 72.3016 16.845C72.5983 17.1966 72.8235 17.5427 72.9773 17.8833H73.0845V11.5383H76.5866V28.4143H73.1257V26.3872H72.9773C72.8125 26.7388 72.5791 27.0876 72.2769 27.4337C71.9803 27.7743 71.593 28.0572 71.1151 28.2824C70.6426 28.5077 70.0658 28.6203 69.3846 28.6203ZM70.497 25.8269C71.0629 25.8269 71.5408 25.673 71.9308 25.3654C72.3264 25.0523 72.6285 24.6155 72.8373 24.0552C73.0515 23.4949 73.1586 22.8384 73.1586 22.0858C73.1586 21.3332 73.0543 20.6795 72.8455 20.1246C72.6367 19.5698 72.3346 19.1413 71.9391 18.8392C71.5435 18.537 71.0629 18.386 70.497 18.386C69.9202 18.386 69.4341 18.5425 69.0385 18.8556C68.643 19.1688 68.3436 19.6028 68.1403 20.1576C67.9371 20.7124 67.8355 21.3552 67.8355 22.0858C67.8355 22.8219 67.9371 23.4729 68.1403 24.0387C68.3491 24.5991 68.6485 25.0385 69.0385 25.3572C69.4341 25.6703 69.9202 25.8269 70.497 25.8269ZM79.4727 28.4143V15.7573H82.8182V17.9904H82.9665C83.2302 17.2488 83.6697 16.6638 84.285 16.2353C84.9002 15.8068 85.6363 15.5925 86.4933 15.5925C87.3613 15.5925 88.1002 15.8095 88.7099 16.2435C89.3197 16.672 89.7262 17.2543 89.9295 17.9904H90.0613C90.3195 17.2653 90.7865 16.6857 91.4622 16.2517C92.1434 15.8123 92.9482 15.5925 93.8765 15.5925C95.0576 15.5925 96.0163 15.9688 96.7524 16.7214C97.494 17.4685 97.8648 18.5288 97.8648 19.9022V28.4143H94.3627V20.5943C94.3627 19.8912 94.1759 19.3638 93.8024 19.0122C93.4288 18.6606 92.9619 18.4848 92.4016 18.4848C91.7643 18.4848 91.2672 18.6881 90.9101 19.0946C90.553 19.4956 90.3745 20.0258 90.3745 20.685V28.4143H86.9713V20.5202C86.9713 19.8994 86.7927 19.405 86.4356 19.0369C86.0841 18.6689 85.6199 18.4848 85.0431 18.4848C84.653 18.4848 84.3014 18.5837 83.9883 18.7815C83.6807 18.9738 83.4362 19.2457 83.2549 19.5973C83.0736 19.9434 82.983 20.3499 82.983 20.8168V28.4143H79.4727ZM100.638 28.4143V15.7573H104.148V28.4143H100.638ZM102.401 14.1258C101.879 14.1258 101.431 13.9527 101.058 13.6066C100.69 13.2551 100.506 12.8348 100.506 12.3459C100.506 11.8625 100.69 11.4477 101.058 11.1016C101.431 10.75 101.879 10.5742 102.401 10.5742C102.923 10.5742 103.368 10.75 103.736 11.1016C104.109 11.4477 104.296 11.8625 104.296 12.3459C104.296 12.8348 104.109 13.2551 103.736 13.6066C103.368 13.9527 102.923 14.1258 102.401 14.1258ZM110.47 21.097V28.4143H106.96V15.7573H110.305V17.9904H110.454C110.734 17.2543 111.204 16.672 111.863 16.2435C112.522 15.8095 113.321 15.5925 114.261 15.5925C115.14 15.5925 115.906 15.7848 116.56 16.1693C117.213 16.5539 117.722 17.1032 118.084 17.8174C118.447 18.526 118.628 19.372 118.628 20.3554V28.4143H115.118V20.9816C115.123 20.207 114.925 19.6028 114.524 19.1688C114.123 18.7293 113.571 18.5096 112.868 18.5096C112.396 18.5096 111.978 18.6112 111.616 18.8144C111.259 19.0177 110.978 19.3144 110.775 19.7044C110.577 20.0889 110.476 20.5531 110.47 21.097ZM137.255 11.5383H140.823V22.4978C140.823 23.7283 140.529 24.8051 139.941 25.728C139.359 26.6509 138.543 27.3705 137.494 27.8869C136.445 28.3978 135.222 28.6532 133.827 28.6532C132.426 28.6532 131.201 28.3978 130.152 27.8869C129.103 27.3705 128.287 26.6509 127.705 25.728C127.122 24.8051 126.831 23.7283 126.831 22.4978V11.5383H130.399V22.1929C130.399 22.8357 130.539 23.407 130.819 23.9069C131.105 24.4068 131.506 24.7996 132.022 25.0852C132.539 25.3709 133.14 25.5137 133.827 25.5137C134.519 25.5137 135.121 25.3709 135.632 25.0852C136.148 24.7996 136.546 24.4068 136.827 23.9069C137.112 23.407 137.255 22.8357 137.255 22.1929V11.5383ZM154.224 19.3665L151.01 19.5643C150.955 19.2896 150.837 19.0424 150.656 18.8227C150.474 18.5975 150.235 18.4189 149.939 18.2871C149.648 18.1497 149.299 18.0811 148.892 18.0811C148.348 18.0811 147.89 18.1964 147.516 18.4272C147.143 18.6524 146.956 18.9545 146.956 19.3336C146.956 19.6357 147.077 19.8912 147.318 20.0999C147.56 20.3087 147.975 20.4762 148.563 20.6026L150.853 21.064C152.084 21.3167 153.001 21.7232 153.606 22.2836C154.21 22.8439 154.512 23.58 154.512 24.4919C154.512 25.3215 154.268 26.0493 153.779 26.6756C153.295 27.3018 152.631 27.7908 151.785 28.1423C150.944 28.4884 149.974 28.6615 148.876 28.6615C147.2 28.6615 145.865 28.3126 144.871 27.615C143.882 26.9118 143.303 25.956 143.132 24.7474L146.585 24.5661C146.689 25.077 146.942 25.467 147.343 25.7362C147.744 25.9999 148.258 26.1317 148.884 26.1317C149.499 26.1317 149.994 26.0136 150.367 25.7774C150.746 25.5357 150.939 25.2253 150.944 24.8463C150.939 24.5276 150.804 24.2667 150.54 24.0635C150.277 23.8547 149.87 23.6954 149.321 23.5855L147.129 23.1488C145.893 22.9016 144.973 22.4731 144.368 21.8633C143.77 21.2535 143.47 20.4762 143.47 19.5313C143.47 18.7183 143.69 18.0179 144.129 17.4301C144.574 16.8423 145.198 16.3891 146 16.0705C146.807 15.7518 147.752 15.5925 148.835 15.5925C150.433 15.5925 151.691 15.9304 152.609 16.6061C153.531 17.2818 154.07 18.2019 154.224 19.3665ZM162.491 28.6615C161.189 28.6615 160.068 28.3978 159.129 27.8704C158.195 27.3376 157.475 26.585 156.97 25.6126C156.464 24.6348 156.212 23.4784 156.212 22.1435C156.212 20.8415 156.464 19.6989 156.97 18.7156C157.475 17.7322 158.186 16.9659 159.104 16.4165C160.027 15.8672 161.109 15.5925 162.351 15.5925C163.186 15.5925 163.963 15.7271 164.683 15.9963C165.408 16.26 166.039 16.6583 166.578 17.1911C167.122 17.724 167.545 18.3942 167.847 19.2017C168.149 20.0038 168.3 20.9432 168.3 22.0199V22.984H157.612V20.8086H164.996C164.996 20.3032 164.886 19.8555 164.666 19.4654C164.446 19.0754 164.141 18.7705 163.751 18.5508C163.367 18.3255 162.919 18.2129 162.408 18.2129C161.875 18.2129 161.403 18.3365 160.991 18.5837C160.584 18.8254 160.266 19.1523 160.035 19.5643C159.804 19.9708 159.686 20.424 159.681 20.9239V22.9922C159.681 23.6185 159.796 24.1596 160.027 24.6155C160.263 25.0715 160.595 25.4231 161.024 25.6703C161.452 25.9175 161.961 26.0411 162.548 26.0411C162.938 26.0411 163.295 25.9862 163.62 25.8763C163.944 25.7664 164.221 25.6016 164.452 25.3819C164.683 25.1621 164.858 24.893 164.979 24.5743L168.226 24.7886C168.061 25.5687 167.723 26.2499 167.212 26.8322C166.707 27.409 166.053 27.8594 165.251 28.1836C164.455 28.5022 163.534 28.6615 162.491 28.6615ZM170.591 28.4143V15.7573H173.994V17.9657H174.126C174.357 17.1801 174.744 16.5868 175.288 16.1858C175.831 15.7793 176.458 15.576 177.166 15.576C177.342 15.576 177.532 15.587 177.735 15.609C177.938 15.631 178.117 15.6612 178.271 15.6996V18.8144C178.106 18.765 177.878 18.7211 177.587 18.6826C177.296 18.6441 177.029 18.6249 176.787 18.6249C176.271 18.6249 175.81 18.7375 175.403 18.9628C175.002 19.1825 174.683 19.4901 174.447 19.8857C174.216 20.2812 174.101 20.7372 174.101 21.2535V28.4143H170.591Z" fill="white"/>
</svg>
