<svg width="40" height="40" viewBox="0 0 40 40" fill="none" xmlns="http://www.w3.org/2000/svg">
<rect y="0.0361328" width="39.9281" height="39.9281" rx="3" fill="#F34233"/>
<g clip-path="url(#clip0_280_1317)">
<path d="M14.5304 20.6448C14.5304 19.7514 14.7766 18.9145 15.2042 18.1979V15.1582H12.1645C10.9581 16.725 10.3042 18.6345 10.3042 20.6448C10.3042 22.655 10.9581 24.5645 12.1645 26.1313H15.2042V23.0917C14.7766 22.3751 14.5304 21.5382 14.5304 20.6448Z" fill="white"/>
<path d="M19.3202 25.4347L17.2071 27.5478L19.3202 29.661C21.3304 29.661 23.2399 29.007 24.8068 27.8006V24.7642H21.7703C21.0475 25.1933 20.207 25.4347 19.3202 25.4347Z" fill="white"/>
<path d="M15.2042 23.0918L12.1646 26.1315C12.4034 26.4417 12.6635 26.7387 12.9449 27.0202C14.6478 28.7231 16.9119 29.6609 19.3202 29.6609V25.4347C17.5725 25.4347 16.0407 24.4936 15.2042 23.0918Z" fill="white"/>
<path d="M28.3362 20.6441C28.3362 20.0956 28.2866 19.546 28.1886 19.0108L28.1093 18.5776H19.3202V22.8039H23.5976C23.1822 23.6302 22.5436 24.3043 21.7703 24.7634L24.8067 27.7998C25.1169 27.561 25.414 27.3009 25.6955 27.0195C27.3984 25.3165 28.3362 23.0524 28.3362 20.6441Z" fill="white"/>
<path d="M22.7071 17.2576L23.0806 17.6311L26.069 14.6427L25.6955 14.2692C23.9926 12.5663 21.7285 11.6284 19.3202 11.6284L17.2071 13.7415L19.3202 15.8547C20.5996 15.8547 21.8024 16.3529 22.7071 17.2576Z" fill="white"/>
<path d="M19.3202 15.8547V11.6284C16.9119 11.6284 14.6478 12.5663 12.9448 14.2691C12.6634 14.5506 12.4033 14.8476 12.1645 15.1579L15.2041 18.1975C16.0407 16.7957 17.5725 15.8547 19.3202 15.8547Z" fill="white"/>
</g>
<defs>
<clipPath id="clip0_280_1317">
<rect width="18.032" height="18.032" fill="white" transform="translate(10.3042 11.6284)"/>
</clipPath>
</defs>
</svg>
