<svg width="28" height="28" viewBox="0 0 28 28" fill="none" xmlns="http://www.w3.org/2000/svg">
<path d="M13.7423 27C20.7797 27 26.4847 21.1797 26.4847 14C26.4847 6.8203 20.7797 1 13.7423 1C6.70493 1 1 6.8203 1 14C1 21.1797 6.70493 27 13.7423 27Z" stroke="#D3D3D3" stroke-width="2" stroke-linecap="round" stroke-linejoin="round"/>
<path d="M10.0352 10.1C10.3347 9.23113 10.926 8.4985 11.7043 8.03183C12.4826 7.56517 13.3977 7.39458 14.2875 7.55028C15.1773 7.70599 15.9843 8.17794 16.5657 8.88255C17.1471 9.58715 17.4653 10.4789 17.4639 11.4C17.4639 14 13.6412 15.3 13.6412 15.3" stroke="#D3D3D3" stroke-width="2" stroke-linecap="round" stroke-linejoin="round"/>
<path d="M13.7422 20.501H13.7543" stroke="#D3D3D3" stroke-width="2" stroke-linecap="round" stroke-linejoin="round"/>
</svg>
