<svg width="40" height="40" viewBox="0 0 40 40" fill="none" xmlns="http://www.w3.org/2000/svg">
<rect x="0.0722656" y="0.0361328" width="39.9281" height="39.9281" rx="3" fill="#1F1F20"/>
<path d="M24.1708 10.1299C24.2166 10.1299 24.2624 10.1299 24.3108 10.1299C24.4232 11.4462 23.8933 12.4298 23.2492 13.1421C22.6173 13.8494 21.7519 14.5355 20.3522 14.4314C20.2588 13.1339 20.7897 12.2233 21.4329 11.5126C22.0294 10.8504 23.123 10.261 24.1708 10.1299Z" fill="white"/>
<path d="M28.4081 23.834C28.4081 23.8472 28.4081 23.8586 28.4081 23.8709C28.0147 25.0004 27.4536 25.9684 26.7689 26.8668C26.1438 27.6823 25.3778 28.7799 24.0101 28.7799C22.8282 28.7799 22.0432 28.0594 20.8319 28.0397C19.5506 28.02 18.846 28.6422 17.6745 28.7987C17.5405 28.7987 17.4065 28.7987 17.2751 28.7987C16.4149 28.6807 15.7206 28.0348 15.2149 27.4528C13.7235 25.7332 12.571 23.5119 12.3566 20.6693C12.3566 20.3907 12.3566 20.1128 12.3566 19.8341C12.4474 17.7997 13.4901 16.1457 14.876 15.344C15.6074 14.9178 16.6129 14.5547 17.7325 14.717C18.2123 14.7875 18.7025 14.9432 19.1322 15.0973C19.5394 15.2457 20.0486 15.5088 20.5311 15.4948C20.8579 15.4858 21.1829 15.3244 21.5123 15.2104C22.4772 14.8801 23.423 14.5014 24.6697 14.6793C26.168 14.894 27.2314 15.5252 27.8885 16.4989C26.621 17.2637 25.619 18.4161 25.7902 20.3841C25.9424 22.1718 27.0386 23.2177 28.4081 23.834Z" fill="white"/>
</svg>
