<svg width="26" height="32" viewBox="0 0 26 32" fill="none" xmlns="http://www.w3.org/2000/svg">
<g id="Group 216579">
<path id="Vector" d="M5.77753 16.5501C6.57627 16.5501 7.22215 15.9029 7.22215 15.1055V9.3278C7.22215 6.14128 9.81331 3.55011 12.9998 3.55011C16.1864 3.55011 18.7775 6.14128 18.7775 9.3278V15.1055C18.7775 15.9029 19.4234 16.5501 20.2221 16.5501C21.0209 16.5501 21.6665 15.9029 21.6665 15.1055V9.3278C21.6665 4.54801 17.7796 0.661133 12.9998 0.661133C8.22005 0.661133 4.33317 4.54801 4.33317 9.3278V15.1055C4.33317 15.9029 4.97878 16.5501 5.77753 16.5501Z" fill="url(#paint0_linear_330_525)"/>
<path id="Vector_2" d="M3.25 11.5811H22.75C24.5411 11.5811 26 13.0384 26 14.8311V27.9177C26 29.7104 24.5411 31.1677 22.75 31.1677H3.25C1.4589 31.1677 9.53674e-07 29.7104 9.53674e-07 27.9177V14.8311C9.53674e-07 13.0384 1.4589 11.5811 3.25 11.5811Z" fill="url(#paint1_linear_330_525)"/>
</g>
<defs>
<linearGradient id="paint0_linear_330_525" x1="12.9998" y1="0.661133" x2="12.9998" y2="16.5501" gradientUnits="userSpaceOnUse">
<stop stop-color="#CCCCCC"/>
<stop offset="0.495" stop-color="#D8D8D8"/>
<stop offset="1" stop-color="#CDCDCD"/>
</linearGradient>
<linearGradient id="paint1_linear_330_525" x1="6.76" y1="14.8737" x2="23.92" y2="30.9937" gradientUnits="userSpaceOnUse">
<stop stop-color="#DBB263"/>
<stop offset="0.275" stop-color="#D8B064"/>
<stop offset="0.79" stop-color="#D8B165"/>
<stop offset="1" stop-color="#D5A64D"/>
</linearGradient>
</defs>
</svg>
