<svg width="180" height="39" viewBox="0 0 180 39" fill="none" xmlns="http://www.w3.org/2000/svg">
<path d="M9.46863 2.70767C13.1546 0.520279 17.4629 -0.380468 21.7165 0.146961C25.9701 0.674391 29.9279 2.6001 32.968 5.6215C36.0081 8.6429 37.9583 12.5887 38.512 16.839C39.0657 21.0892 38.1916 25.403 36.027 29.1024C33.8624 32.8019 30.5301 35.6773 26.5536 37.2769C22.5771 38.8765 18.1818 39.1096 14.0584 37.9396C9.93506 36.7696 6.31727 34.2627 3.77355 30.813C1.22982 27.3633 -0.0956631 23.1661 0.00537325 18.8812L2.70296 18.9448C2.61602 22.6318 3.75655 26.2432 5.94531 29.2116C8.13408 32.18 11.247 34.337 14.795 35.3437C18.343 36.3505 22.1249 36.1499 25.5466 34.7735C28.9682 33.3971 31.8355 30.923 33.698 27.7397C35.5605 24.5565 36.3127 20.8447 35.8362 17.1876C35.3598 13.5304 33.6818 10.1352 31.0659 7.5354C28.45 4.93561 25.0445 3.27862 21.3845 2.82479C17.7244 2.37096 14.0173 3.14602 10.8457 5.02817L9.46863 2.70767Z" fill="#7367F0"/>
<path d="M26.0517 30.9207C23.5157 32.4073 20.5581 33.0102 17.6425 32.6351C14.7269 32.2599 12.0182 30.9279 9.94113 28.8477C7.86402 26.7676 6.53592 24.057 6.16504 21.1408C5.79415 18.2247 6.40145 15.268 7.89172 12.7341C9.38199 10.2002 11.671 8.23256 14.3998 7.13952C17.1287 6.04649 20.1431 5.8899 22.9705 6.69432C25.7979 7.49874 28.2785 9.21867 30.0232 11.5845C31.768 13.9503 32.6784 16.8282 32.6117 19.7671L29.7385 19.7018C29.7908 17.399 29.0775 15.144 27.7104 13.2902C26.3432 11.4365 24.3995 10.0888 22.1841 9.45848C19.9686 8.82817 17.6066 8.95086 15.4684 9.80732C13.3302 10.6638 11.5366 12.2056 10.3689 14.191C9.20116 16.1765 8.72531 18.4933 9.01592 20.7783C9.30654 23.0632 10.3472 25.1872 11.9747 26.8171C13.6023 28.447 15.7247 29.4908 18.0092 29.7847C20.2938 30.0787 22.6113 29.6062 24.5984 28.4414L26.0517 30.9207Z" fill="#7367F0"/>
<path d="M50.9266 28.4141H47.1031L52.9289 11.5381H57.527L63.3446 28.4141H59.5211L55.2939 15.3945H55.162L50.9266 28.4141ZM50.6876 21.7807H59.7189V24.5659H50.6876V21.7807ZM69.3846 28.6201C68.4233 28.6201 67.5525 28.3729 66.7725 27.8784C65.9979 27.3785 65.3826 26.6452 64.9267 25.6783C64.4762 24.706 64.251 23.5139 64.251 22.1021C64.251 20.6518 64.4844 19.446 64.9514 18.4846C65.4183 17.5178 66.0391 16.7954 66.8137 16.3175C67.5937 15.834 68.448 15.5923 69.3764 15.5923C70.085 15.5923 70.6756 15.7132 71.148 15.9549C71.626 16.1911 72.0105 16.4877 72.3016 16.8448C72.5983 17.1964 72.8235 17.5425 72.9773 17.8831H73.0845V11.5381H76.5866V28.4141H73.1257V26.387H72.9773C72.8125 26.7386 72.5791 27.0874 72.2769 27.4335C71.9803 27.7741 71.593 28.057 71.1151 28.2822C70.6426 28.5075 70.0658 28.6201 69.3846 28.6201ZM70.497 25.8266C71.0629 25.8266 71.5408 25.6728 71.9308 25.3652C72.3264 25.0521 72.6285 24.6153 72.8373 24.055C73.0515 23.4947 73.1586 22.8382 73.1586 22.0856C73.1586 21.333 73.0543 20.6793 72.8455 20.1244C72.6367 19.5696 72.3346 19.1411 71.9391 18.839C71.5435 18.5368 71.0629 18.3857 70.497 18.3857C69.9202 18.3857 69.4341 18.5423 69.0385 18.8554C68.643 19.1686 68.3436 19.6025 68.1403 20.1574C67.9371 20.7122 67.8355 21.355 67.8355 22.0856C67.8355 22.8217 67.9371 23.4727 68.1403 24.0385C68.3491 24.5989 68.6485 25.0383 69.0385 25.3569C69.4341 25.6701 69.9202 25.8266 70.497 25.8266ZM79.4727 28.4141V15.7571H82.8182V17.9902H82.9665C83.2302 17.2486 83.6697 16.6635 84.285 16.235C84.9002 15.8066 85.6363 15.5923 86.4933 15.5923C87.3613 15.5923 88.1002 15.8093 88.7099 16.2433C89.3197 16.6718 89.7262 17.2541 89.9295 17.9902H90.0613C90.3195 17.2651 90.7865 16.6855 91.4622 16.2515C92.1434 15.8121 92.9482 15.5923 93.8765 15.5923C95.0576 15.5923 96.0163 15.9686 96.7524 16.7212C97.494 17.4683 97.8648 18.5286 97.8648 19.9019V28.4141H94.3627V20.5941C94.3627 19.891 94.1759 19.3636 93.8024 19.012C93.4288 18.6604 92.9619 18.4846 92.4016 18.4846C91.7643 18.4846 91.2672 18.6879 90.9101 19.0944C90.553 19.4954 90.3745 20.0255 90.3745 20.6848V28.4141H86.9713V20.52C86.9713 19.8992 86.7927 19.4048 86.4356 19.0367C86.0841 18.6687 85.6199 18.4846 85.0431 18.4846C84.653 18.4846 84.3014 18.5835 83.9883 18.7813C83.6807 18.9735 83.4362 19.2455 83.2549 19.597C83.0736 19.9431 82.983 20.3497 82.983 20.8166V28.4141H79.4727ZM100.638 28.4141V15.7571H104.148V28.4141H100.638ZM102.401 14.1256C101.879 14.1256 101.431 13.9525 101.058 13.6064C100.69 13.2548 100.506 12.8346 100.506 12.3457C100.506 11.8622 100.69 11.4475 101.058 11.1014C101.431 10.7498 101.879 10.574 102.401 10.574C102.923 10.574 103.368 10.7498 103.736 11.1014C104.109 11.4475 104.296 11.8622 104.296 12.3457C104.296 12.8346 104.109 13.2548 103.736 13.6064C103.368 13.9525 102.923 14.1256 102.401 14.1256ZM110.47 21.0968V28.4141H106.96V15.7571H110.305V17.9902H110.454C110.734 17.2541 111.204 16.6718 111.863 16.2433C112.522 15.8093 113.321 15.5923 114.261 15.5923C115.14 15.5923 115.906 15.7846 116.56 16.1691C117.213 16.5537 117.722 17.103 118.084 17.8172C118.447 18.5258 118.628 19.3718 118.628 20.3551V28.4141H115.118V20.9814C115.123 20.2068 114.925 19.6025 114.524 19.1686C114.123 18.7291 113.571 18.5093 112.868 18.5093C112.396 18.5093 111.978 18.611 111.616 18.8142C111.259 19.0175 110.978 19.3141 110.775 19.7042C110.577 20.0887 110.476 20.5529 110.47 21.0968ZM137.255 11.5381H140.823V22.4976C140.823 23.7281 140.529 24.8049 139.941 25.7278C139.359 26.6507 138.543 27.3703 137.494 27.8867C136.445 28.3976 135.222 28.653 133.827 28.653C132.426 28.653 131.201 28.3976 130.152 27.8867C129.103 27.3703 128.287 26.6507 127.705 25.7278C127.122 24.8049 126.831 23.7281 126.831 22.4976V11.5381H130.399V22.1927C130.399 22.8354 130.539 23.4068 130.819 23.9067C131.105 24.4066 131.506 24.7994 132.022 25.085C132.539 25.3707 133.14 25.5135 133.827 25.5135C134.519 25.5135 135.121 25.3707 135.632 25.085C136.148 24.7994 136.546 24.4066 136.827 23.9067C137.112 23.4068 137.255 22.8354 137.255 22.1927V11.5381ZM154.224 19.3663L151.01 19.5641C150.955 19.2894 150.837 19.0422 150.656 18.8225C150.474 18.5972 150.235 18.4187 149.939 18.2869C149.648 18.1495 149.299 18.0809 148.892 18.0809C148.348 18.0809 147.89 18.1962 147.516 18.4269C147.143 18.6522 146.956 18.9543 146.956 19.3334C146.956 19.6355 147.077 19.891 147.318 20.0997C147.56 20.3085 147.975 20.476 148.563 20.6024L150.853 21.0638C152.084 21.3165 153.001 21.723 153.606 22.2834C154.21 22.8437 154.512 23.5798 154.512 24.4917C154.512 25.3212 154.268 26.0491 153.779 26.6754C153.295 27.3016 152.631 27.7906 151.785 28.1421C150.944 28.4882 149.974 28.6613 148.876 28.6613C147.2 28.6613 145.865 28.3124 144.871 27.6148C143.882 26.9116 143.303 25.9557 143.132 24.7472L146.585 24.5659C146.689 25.0768 146.942 25.4668 147.343 25.736C147.744 25.9997 148.258 26.1315 148.884 26.1315C149.499 26.1315 149.994 26.0134 150.367 25.7772C150.746 25.5355 150.939 25.2251 150.944 24.8461C150.939 24.5274 150.804 24.2665 150.54 24.0632C150.277 23.8545 149.87 23.6952 149.321 23.5853L147.129 23.1486C145.893 22.9014 144.973 22.4729 144.368 21.8631C143.77 21.2533 143.47 20.476 143.47 19.5311C143.47 18.7181 143.69 18.0177 144.129 17.4299C144.574 16.8421 145.198 16.3889 146 16.0702C146.807 15.7516 147.752 15.5923 148.835 15.5923C150.433 15.5923 151.691 15.9302 152.609 16.6059C153.531 17.2816 154.07 18.2017 154.224 19.3663ZM162.491 28.6613C161.189 28.6613 160.068 28.3976 159.129 27.8702C158.195 27.3373 157.475 26.5847 156.97 25.6124C156.464 24.6346 156.212 23.4782 156.212 22.1433C156.212 20.8413 156.464 19.6987 156.97 18.7153C157.475 17.732 158.186 16.9657 159.104 16.4163C160.027 15.867 161.109 15.5923 162.351 15.5923C163.186 15.5923 163.963 15.7269 164.683 15.9961C165.408 16.2598 166.039 16.658 166.578 17.1909C167.122 17.7238 167.545 18.394 167.847 19.2015C168.149 20.0036 168.3 20.9429 168.3 22.0197V22.9838H157.612V20.8084H164.996C164.996 20.303 164.886 19.8552 164.666 19.4652C164.446 19.0752 164.141 18.7703 163.751 18.5505C163.367 18.3253 162.919 18.2127 162.408 18.2127C161.875 18.2127 161.403 18.3363 160.991 18.5835C160.584 18.8252 160.266 19.1521 160.035 19.5641C159.804 19.9706 159.686 20.4238 159.681 20.9237V22.992C159.681 23.6183 159.796 24.1594 160.027 24.6153C160.263 25.0713 160.595 25.4229 161.024 25.6701C161.452 25.9173 161.961 26.0409 162.548 26.0409C162.938 26.0409 163.295 25.986 163.62 25.8761C163.944 25.7662 164.221 25.6014 164.452 25.3817C164.683 25.1619 164.858 24.8928 164.979 24.5741L168.226 24.7884C168.061 25.5684 167.723 26.2496 167.212 26.8319C166.707 27.4088 166.053 27.8592 165.251 28.1833C164.455 28.502 163.534 28.6613 162.491 28.6613ZM170.591 28.4141V15.7571H173.994V17.9655H174.126C174.357 17.1799 174.744 16.5866 175.288 16.1856C175.831 15.7791 176.458 15.5758 177.166 15.5758C177.342 15.5758 177.532 15.5868 177.735 15.6088C177.938 15.6308 178.117 15.661 178.271 15.6994V18.8142C178.106 18.7648 177.878 18.7208 177.587 18.6824C177.296 18.6439 177.029 18.6247 176.787 18.6247C176.271 18.6247 175.81 18.7373 175.403 18.9626C175.002 19.1823 174.683 19.4899 174.447 19.8855C174.216 20.281 174.101 20.7369 174.101 21.2533V28.4141H170.591Z" fill="#070707"/>
</svg>
