<svg width="145" height="41" viewBox="0 0 145 41" fill="none" xmlns="http://www.w3.org/2000/svg">
<path d="M45.3942 26H42.4283L46.9474 12.9091H50.5142L55.027 26H52.0611L48.782 15.9006H48.6797L45.3942 26ZM45.2088 20.8544H52.2145V23.0149H45.2088V20.8544ZM59.7124 26.1598C58.9666 26.1598 58.2912 25.968 57.6861 25.5845C57.0852 25.1967 56.608 24.6278 56.2543 23.8778C55.9048 23.1236 55.7301 22.1989 55.7301 21.1037C55.7301 19.9787 55.9112 19.0433 56.2734 18.2976C56.6357 17.5476 57.1172 16.9872 57.718 16.6165C58.3232 16.2415 58.9858 16.054 59.706 16.054C60.2557 16.054 60.7138 16.1477 61.0803 16.3352C61.451 16.5185 61.7493 16.7486 61.9751 17.0256C62.2053 17.2983 62.38 17.5668 62.4993 17.831H62.5824V12.9091H65.299V26H62.6143V24.4276H62.4993C62.3714 24.7003 62.1903 24.9709 61.956 25.2393C61.7259 25.5036 61.4254 25.723 61.0547 25.8977C60.6882 26.0724 60.2408 26.1598 59.7124 26.1598ZM60.5753 23.9929C61.0142 23.9929 61.3849 23.8736 61.6875 23.6349C61.9943 23.392 62.2287 23.0533 62.3906 22.6186C62.5568 22.1839 62.6399 21.6747 62.6399 21.0909C62.6399 20.5071 62.5589 20 62.397 19.5696C62.2351 19.1392 62.0007 18.8068 61.6939 18.5724C61.3871 18.3381 61.0142 18.2209 60.5753 18.2209C60.1278 18.2209 59.7507 18.3423 59.4439 18.5852C59.1371 18.8281 58.9048 19.1648 58.7472 19.5952C58.5895 20.0256 58.5107 20.5241 58.5107 21.0909C58.5107 21.6619 58.5895 22.1669 58.7472 22.6058C58.9091 23.0405 59.1413 23.3814 59.4439 23.6286C59.7507 23.8714 60.1278 23.9929 60.5753 23.9929ZM67.5378 26V16.1818H70.133V17.9141H70.248C70.4526 17.3388 70.7935 16.8849 71.2708 16.5526C71.748 16.2202 72.3191 16.054 72.9838 16.054C73.6571 16.054 74.2303 16.2223 74.7033 16.5589C75.1763 16.8913 75.4917 17.343 75.6493 17.9141H75.7516C75.9519 17.3516 76.3141 16.902 76.8382 16.5653C77.3667 16.2244 77.9909 16.054 78.7111 16.054C79.6273 16.054 80.3709 16.3459 80.9419 16.9297C81.5172 17.5092 81.8049 18.3317 81.8049 19.397V26H79.0882V19.9339C79.0882 19.3885 78.9434 18.9794 78.6536 18.7067C78.3638 18.4339 78.0016 18.2976 77.5669 18.2976C77.0726 18.2976 76.687 18.4553 76.41 18.7706C76.133 19.0817 75.9945 19.4929 75.9945 20.0043V26H73.3546V19.8764C73.3546 19.3949 73.2161 19.0114 72.9391 18.7259C72.6664 18.4403 72.3063 18.2976 71.8588 18.2976C71.5563 18.2976 71.2836 18.3743 71.0407 18.5277C70.802 18.6768 70.6124 18.8878 70.4718 19.1605C70.3311 19.429 70.2608 19.7443 70.2608 20.1065V26H67.5378ZM83.9558 26V16.1818H86.6788V26H83.9558ZM85.3237 14.9162C84.9189 14.9162 84.5716 14.782 84.2818 14.5135C83.9963 14.2408 83.8535 13.9148 83.8535 13.5355C83.8535 13.1605 83.9963 12.8388 84.2818 12.5703C84.5716 12.2976 84.9189 12.1612 85.3237 12.1612C85.7285 12.1612 86.0737 12.2976 86.3592 12.5703C86.649 12.8388 86.7939 13.1605 86.7939 13.5355C86.7939 13.9148 86.649 14.2408 86.3592 14.5135C86.0737 14.782 85.7285 14.9162 85.3237 14.9162ZM91.5831 20.3239V26H88.8601V16.1818H91.4553V17.9141H91.5703C91.7876 17.343 92.152 16.8913 92.6634 16.5589C93.1747 16.2223 93.7947 16.054 94.5234 16.054C95.2053 16.054 95.7997 16.2031 96.3068 16.5014C96.8139 16.7997 97.2081 17.2259 97.4893 17.7798C97.7706 18.3295 97.9112 18.9858 97.9112 19.7486V26H95.1882V20.2344C95.1925 19.6335 95.0391 19.1648 94.728 18.8281C94.4169 18.4872 93.9886 18.3168 93.4432 18.3168C93.0767 18.3168 92.7528 18.3956 92.4716 18.5533C92.1946 18.7109 91.9773 18.9411 91.8196 19.2436C91.6662 19.5419 91.5874 19.902 91.5831 20.3239ZM112.36 12.9091H115.128V21.4105C115.128 22.3651 114.9 23.2003 114.444 23.9162C113.993 24.6321 113.36 25.1903 112.546 25.5909C111.732 25.9872 110.784 26.1854 109.701 26.1854C108.615 26.1854 107.664 25.9872 106.85 25.5909C106.037 25.1903 105.404 24.6321 104.952 23.9162C104.5 23.2003 104.275 22.3651 104.275 21.4105V12.9091H107.042V21.174C107.042 21.6726 107.151 22.1158 107.368 22.5036C107.59 22.8913 107.901 23.196 108.301 23.4176C108.702 23.6392 109.169 23.75 109.701 23.75C110.238 23.75 110.705 23.6392 111.101 23.4176C111.502 23.196 111.811 22.8913 112.028 22.5036C112.25 22.1158 112.36 21.6726 112.36 21.174V12.9091ZM125.523 18.9815L123.03 19.1349C122.988 18.9219 122.896 18.7301 122.756 18.5597C122.615 18.3849 122.43 18.2464 122.199 18.1442C121.974 18.0376 121.703 17.9844 121.388 17.9844C120.966 17.9844 120.61 18.0739 120.32 18.2528C120.03 18.4276 119.885 18.6619 119.885 18.956C119.885 19.1903 119.979 19.3885 120.167 19.5504C120.354 19.7124 120.676 19.8423 121.132 19.9403L122.909 20.2983C123.863 20.4943 124.575 20.8097 125.044 21.2443C125.513 21.679 125.747 22.25 125.747 22.9574C125.747 23.6009 125.557 24.1655 125.178 24.6513C124.803 25.1371 124.287 25.5163 123.631 25.7891C122.979 26.0575 122.227 26.1918 121.375 26.1918C120.075 26.1918 119.04 25.9212 118.268 25.38C117.501 24.8345 117.052 24.093 116.92 23.1555L119.598 23.0149C119.679 23.4112 119.875 23.7138 120.186 23.9226C120.497 24.1271 120.895 24.2294 121.381 24.2294C121.858 24.2294 122.242 24.1378 122.532 23.9545C122.826 23.767 122.975 23.5263 122.979 23.2322C122.975 22.9851 122.871 22.7827 122.666 22.625C122.461 22.4631 122.146 22.3395 121.72 22.2543L120.02 21.9155C119.061 21.7237 118.347 21.3913 117.878 20.9183C117.414 20.4453 117.182 19.8423 117.182 19.1094C117.182 18.4787 117.352 17.9354 117.693 17.4794C118.038 17.0234 118.522 16.6719 119.144 16.4247C119.77 16.1776 120.503 16.054 121.343 16.054C122.583 16.054 123.559 16.3161 124.27 16.8402C124.986 17.3643 125.404 18.0781 125.523 18.9815ZM131.936 26.1918C130.926 26.1918 130.057 25.9872 129.328 25.5781C128.604 25.1648 128.045 24.581 127.653 23.8267C127.261 23.0682 127.065 22.1712 127.065 21.1357C127.065 20.1257 127.261 19.2393 127.653 18.4766C128.045 17.7138 128.597 17.1193 129.309 16.6932C130.025 16.267 130.864 16.054 131.827 16.054C132.475 16.054 133.078 16.1584 133.636 16.3672C134.199 16.5717 134.689 16.8807 135.107 17.294C135.528 17.7074 135.857 18.2273 136.091 18.8537C136.325 19.4759 136.442 20.2045 136.442 21.0398V21.7876H128.152V20.1001H133.879C133.879 19.7081 133.794 19.3608 133.624 19.0582C133.453 18.7557 133.217 18.5192 132.914 18.3487C132.616 18.174 132.268 18.0866 131.872 18.0866C131.459 18.0866 131.092 18.1825 130.773 18.3743C130.457 18.5618 130.21 18.8153 130.031 19.1349C129.852 19.4503 129.761 19.8018 129.756 20.1896V21.794C129.756 22.2798 129.846 22.6996 130.025 23.0533C130.208 23.407 130.466 23.6797 130.798 23.8714C131.131 24.0632 131.525 24.1591 131.981 24.1591C132.283 24.1591 132.56 24.1165 132.812 24.0312C133.063 23.946 133.278 23.8182 133.457 23.6477C133.636 23.4773 133.773 23.2685 133.866 23.0213L136.385 23.1875C136.257 23.7926 135.995 24.321 135.599 24.7727C135.207 25.2202 134.7 25.5696 134.077 25.821C133.46 26.0682 132.746 26.1918 131.936 26.1918ZM138.219 26V16.1818H140.859V17.8949H140.962C141.141 17.2855 141.441 16.8253 141.863 16.5142C142.285 16.1989 142.771 16.0412 143.32 16.0412C143.457 16.0412 143.604 16.0497 143.761 16.0668C143.919 16.0838 144.058 16.1072 144.177 16.1371V18.5533C144.049 18.5149 143.872 18.4808 143.646 18.451C143.42 18.4212 143.214 18.4062 143.026 18.4062C142.626 18.4062 142.268 18.4936 141.952 18.6683C141.641 18.8388 141.394 19.0774 141.211 19.3842C141.032 19.6911 140.942 20.0447 140.942 20.4453V26H138.219Z" fill="black"/>
<mask id="mask0_2_1164" style="mask-type:alpha" maskUnits="userSpaceOnUse" x="5" y="5" width="31" height="31">
<circle cx="20.7582" cy="20.2416" r="13.8179" stroke="#7367F0" stroke-width="2"/>
</mask>
<g mask="url(#mask0_2_1164)">
<rect x="0.241089" y="20.2411" width="41.0343" height="14.8179" fill="black"/>
</g>
<mask id="mask1_2_1164" style="mask-type:alpha" maskUnits="userSpaceOnUse" x="5" y="5" width="31" height="31">
<circle cx="20.7578" cy="20.2417" r="13.8179" transform="rotate(-120 20.7578 20.2417)" stroke="#7367F0" stroke-width="2"/>
</mask>
<g mask="url(#mask1_2_1164)">
<rect x="31.0162" y="38.0097" width="41.0343" height="14.8179" transform="rotate(-120 31.0162 38.0097)" fill="black"/>
</g>
<mask id="mask2_2_1164" style="mask-type:alpha" maskUnits="userSpaceOnUse" x="10" y="9" width="22" height="22">
<circle cx="20.7579" cy="20.2414" r="9.25857" transform="rotate(-180 20.7579 20.2414)" stroke="#7367F0" stroke-width="2"/>
</mask>
<g mask="url(#mask2_2_1164)">
<rect x="34.9623" y="20.2411" width="28.4083" height="10.2586" transform="rotate(-180 34.9623 20.2411)" fill="black"/>
</g>
<mask id="mask3_2_1164" style="mask-type:alpha" maskUnits="userSpaceOnUse" x="10" y="9" width="22" height="22">
<circle cx="20.758" cy="20.2417" r="9.25857" transform="rotate(60 20.758 20.2417)" stroke="#7367F0" stroke-width="2"/>
</mask>
<g mask="url(#mask3_2_1164)">
<rect x="13.6565" y="7.94019" width="28.4083" height="10.2586" transform="rotate(60 13.6565 7.94019)" fill="black"/>
</g>
</svg>
